<svg xmlns="http://www.w3.org/2000/svg" xmlns:xlink="http://www.w3.org/1999/xlink" width="2000" zoomAndPan="magnify" viewBox="0 0 1500 1499.999933" height="2000" preserveAspectRatio="xMidYMid meet" version="1.0"><defs><filter x="0%" y="0%" width="100%" height="100%" id="0eb4e013a0"><feColorMatrix values="0 0 0 0 1 0 0 0 0 1 0 0 0 0 1 0 0 0 1 0" color-interpolation-filters="sRGB"/></filter><g/><clipPath id="d7e1c7bcba"><path d="M 463 680 L 603 680 L 603 820 L 463 820 Z M 463 680 " clip-rule="nonzero"/></clipPath><clipPath id="1551020ba8"><path d="M 532.851562 848.6875 L 434.15625 749.992188 L 532.851562 651.296875 L 631.546875 749.992188 Z M 532.851562 848.6875 " clip-rule="nonzero"/></clipPath><clipPath id="54e6b27d2a"><path d="M 483.503906 799.339844 C 510.757812 826.59375 554.945312 826.59375 582.199219 799.339844 C 609.453125 772.085938 609.453125 727.898438 582.199219 700.644531 C 554.945312 673.390625 510.757812 673.390625 483.503906 700.644531 C 456.25 727.898438 456.25 772.085938 483.503906 799.339844 Z M 483.503906 799.339844 " clip-rule="nonzero"/></clipPath><clipPath id="beede7839d"><path d="M 0 0 L 140 0 L 140 140 L 0 140 Z M 0 0 " clip-rule="nonzero"/></clipPath><clipPath id="bd4eaee8e5"><path d="M 69.851562 168.6875 L -28.84375 69.992188 L 69.851562 -28.703125 L 168.546875 69.992188 Z M 69.851562 168.6875 " clip-rule="nonzero"/></clipPath><clipPath id="e72d3991b5"><path d="M 20.503906 119.339844 C 47.757812 146.59375 91.945312 146.59375 119.199219 119.339844 C 146.453125 92.085938 146.453125 47.898438 119.199219 20.644531 C 91.945312 -6.609375 47.757812 -6.609375 20.503906 20.644531 C -6.75 47.898438 -6.75 92.085938 20.503906 119.339844 Z M 20.503906 119.339844 " clip-rule="nonzero"/></clipPath><clipPath id="927a4a8abb"><rect x="0" width="140" y="0" height="140"/></clipPath><clipPath id="cb8dca386d"><path d="M 470 687 L 596 687 L 596 813 L 470 813 Z M 470 687 " clip-rule="nonzero"/></clipPath><clipPath id="0b185c636a"><path d="M 532.851562 838.546875 L 444.300781 749.996094 L 532.851562 661.445312 L 621.402344 749.996094 Z M 532.851562 838.546875 " clip-rule="nonzero"/></clipPath><clipPath id="d9e6f9b8f8"><path d="M 488.574219 794.269531 C 513.027344 818.722656 552.675781 818.722656 577.125 794.269531 C 601.578125 769.816406 601.578125 730.171875 577.125 705.71875 C 552.675781 681.265625 513.027344 681.265625 488.574219 705.71875 C 464.121094 730.171875 464.121094 769.816406 488.574219 794.269531 Z M 488.574219 794.269531 " clip-rule="nonzero"/></clipPath><clipPath id="8d525697e5"><path d="M 0 0 L 126 0 L 126 126 L 0 126 Z M 0 0 " clip-rule="nonzero"/></clipPath><clipPath id="3dc1ee90ee"><path d="M 62.851562 151.546875 L -25.699219 62.996094 L 62.851562 -25.554688 L 151.402344 62.996094 Z M 62.851562 151.546875 " clip-rule="nonzero"/></clipPath><clipPath id="5870f4ee64"><path d="M 18.574219 107.269531 C 43.027344 131.722656 82.675781 131.722656 107.125 107.269531 C 131.578125 82.816406 131.578125 43.171875 107.125 18.71875 C 82.675781 -5.734375 43.027344 -5.734375 18.574219 18.71875 C -5.878906 43.171875 -5.878906 82.816406 18.574219 107.269531 Z M 18.574219 107.269531 " clip-rule="nonzero"/></clipPath><clipPath id="e05620934d"><rect x="0" width="126" y="0" height="126"/></clipPath><mask id="caaeb910cf"><g filter="url(#0eb4e013a0)"><rect x="-150" width="1800" fill="#000000" y="-149.999993" height="1799.99992" fill-opacity="0.75"/></g></mask><clipPath id="f103f61e30"><path d="M 23 22 L 129 22 L 129 128 L 23 128 Z M 23 22 " clip-rule="nonzero"/></clipPath><clipPath id="ff681792ad"><path d="M 75.824219 149.695312 L 1.152344 75.027344 L 75.824219 0.355469 L 150.492188 75.027344 Z M 75.824219 149.695312 " clip-rule="nonzero"/></clipPath><clipPath id="dc7fa7657a"><path d="M 38.488281 112.363281 C 59.105469 132.980469 92.539062 132.980469 113.15625 112.363281 C 133.777344 91.742188 133.777344 58.3125 113.15625 37.691406 C 92.539062 17.070312 59.105469 17.070312 38.488281 37.691406 C 17.867188 58.3125 17.867188 91.742188 38.488281 112.363281 Z M 38.488281 112.363281 " clip-rule="nonzero"/></clipPath><clipPath id="1adc6f27cd"><path d="M 0 0 L 106 0 L 106 106 L 0 106 Z M 0 0 " clip-rule="nonzero"/></clipPath><clipPath id="7ad1a82059"><path d="M 52.824219 127.695312 L -21.847656 53.027344 L 52.824219 -21.644531 L 127.492188 53.027344 Z M 52.824219 127.695312 " clip-rule="nonzero"/></clipPath><clipPath id="00ecad9c4d"><path d="M 15.488281 90.363281 C 36.105469 110.980469 69.539062 110.980469 90.15625 90.363281 C 110.777344 69.742188 110.777344 36.3125 90.15625 15.691406 C 69.539062 -4.929688 36.105469 -4.929688 15.488281 15.691406 C -5.132812 36.3125 -5.132812 69.742188 15.488281 90.363281 Z M 15.488281 90.363281 " clip-rule="nonzero"/></clipPath><clipPath id="64724eda35"><rect x="0" width="106" y="0" height="106"/></clipPath><clipPath id="35d714218f"><rect x="0" width="151" y="0" height="150"/></clipPath><clipPath id="b60bb764ab"><path d="M 498 692 L 591 692 L 591 784 L 498 784 Z M 498 692 " clip-rule="nonzero"/></clipPath><clipPath id="2da3a78cd5"><path d="M 544.820312 802.875 L 479.960938 738.015625 L 544.820312 673.160156 L 609.675781 738.015625 Z M 544.820312 802.875 " clip-rule="nonzero"/></clipPath><clipPath id="130e6b0c15"><path d="M 512.390625 770.445312 C 530.300781 788.355469 559.335938 788.355469 577.246094 770.445312 C 595.15625 752.535156 595.15625 723.5 577.246094 705.589844 C 559.335938 687.679688 530.300781 687.679688 512.390625 705.589844 C 494.480469 723.5 494.480469 752.535156 512.390625 770.445312 Z M 512.390625 770.445312 " clip-rule="nonzero"/></clipPath><clipPath id="8399771996"><path d="M 0 0 L 93 0 L 93 92 L 0 92 Z M 0 0 " clip-rule="nonzero"/></clipPath><clipPath id="073d3a8412"><path d="M 46.820312 110.875 L -18.039062 46.015625 L 46.820312 -18.839844 L 111.675781 46.015625 Z M 46.820312 110.875 " clip-rule="nonzero"/></clipPath><clipPath id="5a47333f3f"><path d="M 14.390625 78.445312 C 32.300781 96.355469 61.335938 96.355469 79.246094 78.445312 C 97.15625 60.535156 97.15625 31.5 79.246094 13.589844 C 61.335938 -4.320312 32.300781 -4.320312 14.390625 13.589844 C -3.519531 31.5 -3.519531 60.535156 14.390625 78.445312 Z M 14.390625 78.445312 " clip-rule="nonzero"/></clipPath><clipPath id="4cb0f46bad"><rect x="0" width="93" y="0" height="92"/></clipPath><mask id="0ce0a0f636"><g filter="url(#0eb4e013a0)"><rect x="-150" width="1800" fill="#000000" y="-149.999993" height="1799.99992" fill-opacity="0.5"/></g></mask><clipPath id="72f242235b"><path d="M 15 16 L 90 16 L 90 90 L 15 90 Z M 15 16 " clip-rule="nonzero"/></clipPath><clipPath id="4a9e3c0993"><path d="M 52.492188 105.117188 L 0.445312 53.066406 L 52.492188 1.019531 L 104.539062 53.066406 Z M 52.492188 105.117188 " clip-rule="nonzero"/></clipPath><clipPath id="d35140b03b"><path d="M 26.46875 79.09375 C 40.839844 93.464844 64.144531 93.464844 78.515625 79.09375 C 92.890625 64.71875 92.890625 41.417969 78.515625 27.042969 C 64.144531 12.671875 40.839844 12.671875 26.46875 27.042969 C 12.09375 41.417969 12.09375 64.71875 26.46875 79.09375 Z M 26.46875 79.09375 " clip-rule="nonzero"/></clipPath><clipPath id="10f68faca2"><path d="M 0 0 L 75 0 L 75 74 L 0 74 Z M 0 0 " clip-rule="nonzero"/></clipPath><clipPath id="3ff73ca957"><path d="M 37.492188 89.117188 L -14.554688 37.066406 L 37.492188 -14.980469 L 89.539062 37.066406 Z M 37.492188 89.117188 " clip-rule="nonzero"/></clipPath><clipPath id="7273581889"><path d="M 11.46875 63.09375 C 25.839844 77.464844 49.144531 77.464844 63.515625 63.09375 C 77.890625 48.71875 77.890625 25.417969 63.515625 11.042969 C 49.144531 -3.328125 25.839844 -3.328125 11.46875 11.042969 C -2.90625 25.417969 -2.90625 48.71875 11.46875 63.09375 Z M 11.46875 63.09375 " clip-rule="nonzero"/></clipPath><clipPath id="1687842484"><rect x="0" width="75" y="0" height="74"/></clipPath><clipPath id="a7557a2f39"><rect x="0" width="105" y="0" height="106"/></clipPath><clipPath id="c92a091bbb"><path d="M 525 695 L 586 695 L 586 757 L 525 757 Z M 525 695 " clip-rule="nonzero"/></clipPath><clipPath id="4a7b338856"><path d="M 555.488281 768.675781 L 512.875 726.0625 L 555.488281 683.449219 L 598.105469 726.0625 Z M 555.488281 768.675781 " clip-rule="nonzero"/></clipPath><clipPath id="857782a97b"><path d="M 534.183594 747.367188 C 545.949219 759.136719 565.03125 759.136719 576.796875 747.367188 C 588.5625 735.601562 588.5625 716.523438 576.796875 704.753906 C 565.03125 692.988281 545.949219 692.988281 534.183594 704.753906 C 522.414062 716.523438 522.414062 735.601562 534.183594 747.367188 Z M 534.183594 747.367188 " clip-rule="nonzero"/></clipPath><clipPath id="f12a6c1cb2"><path d="M 0 0 L 61 0 L 61 62 L 0 62 Z M 0 0 " clip-rule="nonzero"/></clipPath><clipPath id="f8ad62343a"><path d="M 30.488281 73.675781 L -12.125 31.0625 L 30.488281 -11.550781 L 73.105469 31.0625 Z M 30.488281 73.675781 " clip-rule="nonzero"/></clipPath><clipPath id="b051449cf4"><path d="M 9.183594 52.367188 C 20.949219 64.136719 40.03125 64.136719 51.796875 52.367188 C 63.5625 40.601562 63.5625 21.523438 51.796875 9.753906 C 40.03125 -2.011719 20.949219 -2.011719 9.183594 9.753906 C -2.585938 21.523438 -2.585938 40.601562 9.183594 52.367188 Z M 9.183594 52.367188 " clip-rule="nonzero"/></clipPath><clipPath id="1599a8c555"><rect x="0" width="61" y="0" height="62"/></clipPath><mask id="6b73046746"><g filter="url(#0eb4e013a0)"><rect x="-150" width="1800" fill="#000000" y="-149.999993" height="1799.99992" fill-opacity="0.25"/></g></mask><clipPath id="1aaac528ff"><path d="M 9 8 L 48 8 L 48 48 L 9 48 Z M 9 8 " clip-rule="nonzero"/></clipPath><clipPath id="470e9b4c12"><path d="M 28.511719 55.707031 L 1.136719 28.332031 L 28.511719 0.960938 L 55.886719 28.332031 Z M 28.511719 55.707031 " clip-rule="nonzero"/></clipPath><clipPath id="4ae4fb773e"><path d="M 14.824219 42.019531 C 22.382812 49.578125 34.640625 49.578125 42.199219 42.019531 C 49.757812 34.460938 49.757812 22.207031 42.199219 14.644531 C 34.640625 7.085938 22.382812 7.085938 14.824219 14.644531 C 7.265625 22.207031 7.265625 34.460938 14.824219 42.019531 Z M 14.824219 42.019531 " clip-rule="nonzero"/></clipPath><clipPath id="df9a154066"><path d="M 0 0 L 39 0 L 39 40 L 0 40 Z M 0 0 " clip-rule="nonzero"/></clipPath><clipPath id="649c7cbfda"><path d="M 19.511719 47.707031 L -7.863281 20.332031 L 19.511719 -7.039062 L 46.886719 20.332031 Z M 19.511719 47.707031 " clip-rule="nonzero"/></clipPath><clipPath id="6f60fbe016"><path d="M 5.824219 34.019531 C 13.382812 41.578125 25.640625 41.578125 33.199219 34.019531 C 40.757812 26.460938 40.757812 14.207031 33.199219 6.644531 C 25.640625 -0.914062 13.382812 -0.914062 5.824219 6.644531 C -1.734375 14.207031 -1.734375 26.460938 5.824219 34.019531 Z M 5.824219 34.019531 " clip-rule="nonzero"/></clipPath><clipPath id="ccfb699608"><rect x="0" width="39" y="0" height="40"/></clipPath><clipPath id="ba1977fe02"><rect x="0" width="56" y="0" height="56"/></clipPath><clipPath id="34eead6692"><path d="M 555 701 L 582 701 L 582 728 L 555 728 Z M 555 701 " clip-rule="nonzero"/></clipPath><clipPath id="e9d1f6fa90"><path d="M 568.515625 732.601562 L 550.25 714.339844 L 568.515625 696.074219 L 586.777344 714.339844 Z M 568.515625 732.601562 " clip-rule="nonzero"/></clipPath><clipPath id="14c16a13bf"><path d="M 559.382812 723.46875 C 564.425781 728.515625 572.601562 728.515625 577.644531 723.46875 C 582.6875 718.425781 582.6875 710.25 577.644531 705.207031 C 572.601562 700.164062 564.425781 700.164062 559.382812 705.207031 C 554.339844 710.25 554.339844 718.425781 559.382812 723.46875 Z M 559.382812 723.46875 " clip-rule="nonzero"/></clipPath><clipPath id="222605259d"><path d="M 0 0 L 27 0 L 27 27 L 0 27 Z M 0 0 " clip-rule="nonzero"/></clipPath><clipPath id="fb70258fc5"><path d="M 13.515625 31.601562 L -4.75 13.339844 L 13.515625 -4.925781 L 31.777344 13.339844 Z M 13.515625 31.601562 " clip-rule="nonzero"/></clipPath><clipPath id="14b8b2968a"><path d="M 4.382812 22.46875 C 9.425781 27.515625 17.601562 27.515625 22.644531 22.46875 C 27.6875 17.425781 27.6875 9.25 22.644531 4.207031 C 17.601562 -0.835938 9.425781 -0.835938 4.382812 4.207031 C -0.660156 9.25 -0.660156 17.425781 4.382812 22.46875 Z M 4.382812 22.46875 " clip-rule="nonzero"/></clipPath><clipPath id="b18983aee1"><rect x="0" width="27" y="0" height="27"/></clipPath></defs><g clip-path="url(#d7e1c7bcba)"><g clip-path="url(#1551020ba8)"><g clip-path="url(#54e6b27d2a)"><g transform="matrix(1, 0, 0, 1, 463, 680)"><g clip-path="url(#927a4a8abb)"><g clip-path="url(#beede7839d)"><g clip-path="url(#bd4eaee8e5)"><g clip-path="url(#e72d3991b5)"><path fill="#38b6ff" d="M 69.851562 168.6875 L -28.84375 69.992188 L 69.851562 -28.703125 L 168.546875 69.992188 Z M 69.851562 168.6875 " fill-opacity="1" fill-rule="nonzero"/></g></g></g></g></g></g></g></g><g clip-path="url(#cb8dca386d)"><g clip-path="url(#0b185c636a)"><g clip-path="url(#d9e6f9b8f8)"><g transform="matrix(1, 0, 0, 1, 470, 687)"><g clip-path="url(#e05620934d)"><g clip-path="url(#8d525697e5)"><g clip-path="url(#3dc1ee90ee)"><g clip-path="url(#5870f4ee64)"><path fill="#000000" d="M 62.851562 151.546875 L -25.699219 62.996094 L 62.851562 -25.554688 L 151.402344 62.996094 Z M 62.851562 151.546875 " fill-opacity="1" fill-rule="nonzero"/></g></g></g></g></g></g></g></g><g mask="url(#caaeb910cf)"><g transform="matrix(1, 0, 0, 1, 469, 663)"><g clip-path="url(#35d714218f)"><g clip-path="url(#f103f61e30)"><g clip-path="url(#ff681792ad)"><g clip-path="url(#dc7fa7657a)"><g transform="matrix(1, 0, 0, 1, 23, 22)"><g clip-path="url(#64724eda35)"><g clip-path="url(#1adc6f27cd)"><g clip-path="url(#7ad1a82059)"><g clip-path="url(#00ecad9c4d)"><path fill="#38b6ff" d="M 52.824219 127.695312 L -21.847656 53.027344 L 52.824219 -21.644531 L 127.492188 53.027344 Z M 52.824219 127.695312 " fill-opacity="1" fill-rule="nonzero"/></g></g></g></g></g></g></g></g></g></g></g><g clip-path="url(#b60bb764ab)"><g clip-path="url(#2da3a78cd5)"><g clip-path="url(#130e6b0c15)"><g transform="matrix(1, 0, 0, 1, 498, 692)"><g clip-path="url(#4cb0f46bad)"><g clip-path="url(#8399771996)"><g clip-path="url(#073d3a8412)"><g clip-path="url(#5a47333f3f)"><path fill="#000000" d="M 46.820312 110.875 L -18.039062 46.015625 L 46.820312 -18.839844 L 111.675781 46.015625 Z M 46.820312 110.875 " fill-opacity="1" fill-rule="nonzero"/></g></g></g></g></g></g></g></g><g mask="url(#0ce0a0f636)"><g transform="matrix(1, 0, 0, 1, 503, 673)"><g clip-path="url(#a7557a2f39)"><g clip-path="url(#72f242235b)"><g clip-path="url(#4a9e3c0993)"><g clip-path="url(#d35140b03b)"><g transform="matrix(1, 0, 0, 1, 15, 16)"><g clip-path="url(#1687842484)"><g clip-path="url(#10f68faca2)"><g clip-path="url(#3ff73ca957)"><g clip-path="url(#7273581889)"><path fill="#38b6ff" d="M 37.492188 89.117188 L -14.554688 37.066406 L 37.492188 -14.980469 L 89.539062 37.066406 Z M 37.492188 89.117188 " fill-opacity="1" fill-rule="nonzero"/></g></g></g></g></g></g></g></g></g></g></g><g clip-path="url(#c92a091bbb)"><g clip-path="url(#4a7b338856)"><g clip-path="url(#857782a97b)"><g transform="matrix(1, 0, 0, 1, 525, 695)"><g clip-path="url(#1599a8c555)"><g clip-path="url(#f12a6c1cb2)"><g clip-path="url(#f8ad62343a)"><g clip-path="url(#b051449cf4)"><path fill="#000000" d="M 30.488281 73.675781 L -12.125 31.0625 L 30.488281 -11.550781 L 73.105469 31.0625 Z M 30.488281 73.675781 " fill-opacity="1" fill-rule="nonzero"/></g></g></g></g></g></g></g></g><g mask="url(#6b73046746)"><g transform="matrix(1, 0, 0, 1, 540, 686)"><g clip-path="url(#ba1977fe02)"><g clip-path="url(#1aaac528ff)"><g clip-path="url(#470e9b4c12)"><g clip-path="url(#4ae4fb773e)"><g transform="matrix(1, 0, 0, 1, 9, 8)"><g clip-path="url(#ccfb699608)"><g clip-path="url(#df9a154066)"><g clip-path="url(#649c7cbfda)"><g clip-path="url(#6f60fbe016)"><path fill="#38b6ff" d="M 19.511719 47.707031 L -7.863281 20.332031 L 19.511719 -7.039062 L 46.886719 20.332031 Z M 19.511719 47.707031 " fill-opacity="1" fill-rule="nonzero"/></g></g></g></g></g></g></g></g></g></g></g><g clip-path="url(#34eead6692)"><g clip-path="url(#e9d1f6fa90)"><g clip-path="url(#14c16a13bf)"><g transform="matrix(1, 0, 0, 1, 555, 701)"><g clip-path="url(#b18983aee1)"><g clip-path="url(#222605259d)"><g clip-path="url(#fb70258fc5)"><g clip-path="url(#14b8b2968a)"><path fill="#000000" d="M 13.515625 31.601562 L -4.75 13.339844 L 13.515625 -4.925781 L 31.777344 13.339844 Z M 13.515625 31.601562 " fill-opacity="1" fill-rule="nonzero"/></g></g></g></g></g></g></g></g><g fill="#ffffff" fill-opacity="1"><g transform="translate(625.134816, 769.124914)"><g><path d="M 0.375 0 L 18.078125 -44.1875 L 24.015625 -44.1875 L 41.625 0 L 33.0625 0 L 29.640625 -9.59375 L 12.484375 -9.59375 L 9.03125 0 Z M 15.171875 -16.390625 L 26.953125 -16.390625 L 21.078125 -32.53125 Z M 15.171875 -16.390625 "/></g></g></g><g fill="#ffffff" fill-opacity="1"><g transform="translate(672.247906, 769.124914)"><g><path d="M 42.09375 3.71875 L 35.75 -2.625 C 34.144531 -1.5625 32.347656 -0.753906 30.359375 -0.203125 C 28.378906 0.347656 26.222656 0.625 23.890625 0.625 C 20.972656 0.625 18.363281 0.226562 16.0625 -0.5625 C 13.757812 -1.351562 11.757812 -2.460938 10.0625 -3.890625 C 8.375 -5.316406 6.972656 -6.988281 5.859375 -8.90625 C 4.742188 -10.832031 3.914062 -12.914062 3.375 -15.15625 C 2.832031 -17.394531 2.5625 -19.710938 2.5625 -22.109375 C 2.5625 -24.523438 2.832031 -26.847656 3.375 -29.078125 C 3.914062 -31.316406 4.742188 -33.394531 5.859375 -35.3125 C 6.972656 -37.226562 8.375 -38.898438 10.0625 -40.328125 C 11.757812 -41.753906 13.757812 -42.863281 16.0625 -43.65625 C 18.363281 -44.445312 20.972656 -44.84375 23.890625 -44.84375 C 26.804688 -44.84375 29.414062 -44.441406 31.71875 -43.640625 C 34.03125 -42.835938 36.03125 -41.722656 37.71875 -40.296875 C 39.40625 -38.867188 40.804688 -37.195312 41.921875 -35.28125 C 43.035156 -33.363281 43.863281 -31.28125 44.40625 -29.03125 C 44.945312 -26.789062 45.21875 -24.460938 45.21875 -22.046875 C 45.21875 -19.210938 44.847656 -16.5 44.109375 -13.90625 C 43.367188 -11.320312 42.289062 -9.050781 40.875 -7.09375 L 47.1875 -1.09375 Z M 23.890625 -6.84375 C 25.140625 -6.84375 26.285156 -6.960938 27.328125 -7.203125 C 28.367188 -7.441406 29.296875 -7.75 30.109375 -8.125 L 24.078125 -13.640625 L 29.203125 -18.328125 L 35.09375 -12.890625 C 35.863281 -14.265625 36.421875 -15.710938 36.765625 -17.234375 C 37.109375 -18.753906 37.28125 -20.378906 37.28125 -22.109375 C 37.28125 -24.191406 37.023438 -26.148438 36.515625 -27.984375 C 36.003906 -29.816406 35.210938 -31.4375 34.140625 -32.84375 C 33.066406 -34.257812 31.679688 -35.363281 29.984375 -36.15625 C 28.296875 -36.945312 26.265625 -37.34375 23.890625 -37.34375 C 21.515625 -37.34375 19.484375 -36.945312 17.796875 -36.15625 C 16.109375 -35.363281 14.726562 -34.257812 13.65625 -32.84375 C 12.582031 -31.4375 11.785156 -29.816406 11.265625 -27.984375 C 10.753906 -26.148438 10.5 -24.191406 10.5 -22.109375 C 10.5 -20.023438 10.753906 -18.0625 11.265625 -16.21875 C 11.785156 -14.375 12.582031 -12.742188 13.65625 -11.328125 C 14.726562 -9.921875 16.109375 -8.820312 17.796875 -8.03125 C 19.484375 -7.238281 21.515625 -6.84375 23.890625 -6.84375 Z M 23.890625 -6.84375 "/></g></g></g><g fill="#ffffff" fill-opacity="1"><g transform="translate(726.552005, 769.124914)"><g><path d="M 21.578125 0.625 C 17.617188 0.625 14.394531 -0.109375 11.90625 -1.578125 C 9.425781 -3.046875 7.601562 -5.117188 6.4375 -7.796875 C 5.269531 -10.484375 4.6875 -13.628906 4.6875 -17.234375 L 4.6875 -44.1875 L 12.609375 -44.1875 L 12.609375 -18.140625 C 12.609375 -15.765625 12.863281 -13.75 13.375 -12.09375 C 13.882812 -10.445312 14.789062 -9.191406 16.09375 -8.328125 C 17.394531 -7.460938 19.222656 -7.03125 21.578125 -7.03125 C 23.953125 -7.03125 25.785156 -7.460938 27.078125 -8.328125 C 28.367188 -9.191406 29.269531 -10.445312 29.78125 -12.09375 C 30.289062 -13.75 30.546875 -15.765625 30.546875 -18.140625 L 30.546875 -44.1875 L 38.5 -44.1875 L 38.5 -17.546875 C 38.5 -13.835938 37.910156 -10.617188 36.734375 -7.890625 C 35.554688 -5.171875 33.722656 -3.070312 31.234375 -1.59375 C 28.753906 -0.113281 25.535156 0.625 21.578125 0.625 Z M 21.578125 0.625 "/></g></g></g><g fill="#ffffff" fill-opacity="1"><g transform="translate(774.82191, 769.124914)"><g><path d="M 0.375 0 L 18.078125 -44.1875 L 24.015625 -44.1875 L 41.625 0 L 33.0625 0 L 29.640625 -9.59375 L 12.484375 -9.59375 L 9.03125 0 Z M 15.171875 -16.390625 L 26.953125 -16.390625 L 21.078125 -32.53125 Z M 15.171875 -16.390625 "/></g></g></g><g fill="#ffffff" fill-opacity="1"><g transform="translate(821.935001, 769.124914)"><g><path d="M 18.328125 0.5 C 16.367188 0.5 14.453125 0.226562 12.578125 -0.3125 C 10.710938 -0.851562 9.003906 -1.660156 7.453125 -2.734375 C 5.898438 -3.804688 4.59375 -5.15625 3.53125 -6.78125 C 2.46875 -8.40625 1.757812 -10.304688 1.40625 -12.484375 L 9.28125 -14.484375 C 9.46875 -12.648438 9.992188 -11.144531 10.859375 -9.96875 C 11.734375 -8.800781 12.828125 -7.9375 14.140625 -7.375 C 15.453125 -6.8125 16.890625 -6.53125 18.453125 -6.53125 C 20.035156 -6.53125 21.363281 -6.78125 22.4375 -7.28125 C 23.507812 -7.78125 24.328125 -8.457031 24.890625 -9.3125 C 25.453125 -10.164062 25.734375 -11.117188 25.734375 -12.171875 C 25.734375 -13.316406 25.429688 -14.296875 24.828125 -15.109375 C 24.222656 -15.921875 23.414062 -16.625 22.40625 -17.21875 C 21.394531 -17.8125 20.253906 -18.363281 18.984375 -18.875 C 17.710938 -19.382812 16.398438 -19.90625 15.046875 -20.4375 C 13.691406 -20.96875 12.375 -21.570312 11.09375 -22.25 C 9.820312 -22.925781 8.679688 -23.726562 7.671875 -24.65625 C 6.660156 -25.582031 5.851562 -26.695312 5.25 -28 C 4.644531 -29.300781 4.34375 -30.851562 4.34375 -32.65625 C 4.34375 -34.613281 4.707031 -36.347656 5.4375 -37.859375 C 6.164062 -39.367188 7.171875 -40.644531 8.453125 -41.6875 C 9.734375 -42.726562 11.203125 -43.515625 12.859375 -44.046875 C 14.523438 -44.578125 16.285156 -44.84375 18.140625 -44.84375 C 20.867188 -44.84375 23.410156 -44.222656 25.765625 -42.984375 C 28.117188 -41.742188 30.054688 -39.78125 31.578125 -37.09375 L 24.984375 -33.0625 C 24.210938 -34.5625 23.203125 -35.722656 21.953125 -36.546875 C 20.703125 -37.367188 19.335938 -37.78125 17.859375 -37.78125 C 16.816406 -37.78125 15.875 -37.582031 15.03125 -37.1875 C 14.1875 -36.789062 13.519531 -36.238281 13.03125 -35.53125 C 12.539062 -34.820312 12.296875 -34 12.296875 -33.0625 C 12.296875 -32.007812 12.597656 -31.113281 13.203125 -30.375 C 13.804688 -29.632812 14.613281 -28.988281 15.625 -28.4375 C 16.632812 -27.882812 17.773438 -27.363281 19.046875 -26.875 C 20.316406 -26.382812 21.628906 -25.875 22.984375 -25.34375 C 24.335938 -24.8125 25.648438 -24.203125 26.921875 -23.515625 C 28.191406 -22.828125 29.332031 -22.007812 30.34375 -21.0625 C 31.351562 -20.113281 32.160156 -18.972656 32.765625 -17.640625 C 33.378906 -16.304688 33.6875 -14.722656 33.6875 -12.890625 C 33.6875 -10.796875 33.28125 -8.921875 32.46875 -7.265625 C 31.664062 -5.609375 30.5625 -4.203125 29.15625 -3.046875 C 27.75 -1.890625 26.117188 -1.007812 24.265625 -0.40625 C 22.410156 0.195312 20.429688 0.5 18.328125 0.5 Z M 18.328125 0.5 "/></g></g></g><g fill="#ffffff" fill-opacity="1"><g transform="translate(862.607436, 769.124914)"><g><path d="M 5.6875 0 L 5.6875 -44.1875 L 13.640625 -44.1875 L 13.640625 -25.734375 L 33 -25.734375 L 33 -44.1875 L 40.9375 -44.1875 L 40.9375 0 L 33 0 L 33 -18.453125 L 13.640625 -18.453125 L 13.640625 0 Z M 5.6875 0 "/></g></g></g><g fill="#ffffff" fill-opacity="1"><g transform="translate(914.347796, 769.124914)"><g><path d="M 5.6875 0 L 5.6875 -44.1875 L 13.640625 -44.1875 L 13.640625 0 Z M 5.6875 0 "/></g></g></g><g fill="#ffffff" fill-opacity="1"><g transform="translate(938.793587, 769.124914)"><g><path d="M 5.6875 0 L 5.6875 -44.1875 L 35.09375 -44.1875 L 35.09375 -36.90625 L 13.640625 -36.90625 L 13.640625 -25.734375 L 33.625 -25.734375 L 33.625 -18.453125 L 13.640625 -18.453125 L 13.640625 -7.5 L 35.09375 -7.5 L 35.09375 0 Z M 5.6875 0 "/></g></g></g><g fill="#ffffff" fill-opacity="1"><g transform="translate(982.842671, 769.124914)"><g><path d="M 5.6875 0 L 5.6875 -44.1875 L 13.640625 -44.1875 L 13.640625 -7.5 L 32.53125 -7.5 L 32.53125 0 Z M 5.6875 0 "/></g></g></g><g fill="#ffffff" fill-opacity="1"><g transform="translate(1021.201478, 769.124914)"><g><path d="M 5.6875 0 L 5.6875 -44.1875 L 18.515625 -44.1875 C 23.535156 -44.1875 27.75 -43.316406 31.15625 -41.578125 C 34.570312 -39.835938 37.148438 -37.296875 38.890625 -33.953125 C 40.628906 -30.617188 41.5 -26.554688 41.5 -21.765625 C 41.5 -17.179688 40.609375 -13.265625 38.828125 -10.015625 C 37.046875 -6.773438 34.441406 -4.296875 31.015625 -2.578125 C 27.597656 -0.859375 23.410156 0 18.453125 0 Z M 13.640625 -7.28125 L 17.671875 -7.28125 C 20.109375 -7.28125 22.304688 -7.535156 24.265625 -8.046875 C 26.222656 -8.554688 27.890625 -9.390625 29.265625 -10.546875 C 30.640625 -11.710938 31.695312 -13.242188 32.4375 -15.140625 C 33.1875 -17.035156 33.5625 -19.359375 33.5625 -22.109375 C 33.5625 -25.609375 33.050781 -28.441406 32.03125 -30.609375 C 31.019531 -32.785156 29.398438 -34.378906 27.171875 -35.390625 C 24.941406 -36.398438 22.015625 -36.90625 18.390625 -36.90625 L 13.640625 -36.90625 Z M 13.640625 -7.28125 "/></g></g></g></svg>